# Blender v2.78 (sub 0) OBJ File: 'timemachine.blend'
# www.blender.org
mtllib timemachine_case.mtl
o Cube.001
v 0.259524 1.813705 0.740476
v 0.259524 1.858971 0.740476
v 0.259524 1.813705 0.259524
v 0.259524 1.858971 0.259524
v 0.740476 1.813705 0.740476
v 0.740476 1.858971 0.740476
v 0.740476 1.813705 0.259524
v 0.740476 1.858971 0.259524
v 0.259524 1.813705 0.500000
v 0.500000 1.813705 0.259524
v 0.740476 1.813705 0.500000
v 0.500000 1.813705 0.740476
v 0.500000 1.813705 0.500000
v 0.259524 1.813705 0.620238
v 0.379762 1.813705 0.259524
v 0.740476 1.813705 0.379762
v 0.620238 1.813705 0.740476
v 0.259524 1.813705 0.379762
v 0.620238 1.813705 0.259524
v 0.740476 1.813705 0.620238
v 0.379762 1.813705 0.740476
v 0.500000 1.813705 0.620238
v 0.500000 1.813705 0.379762
v 0.379762 1.813705 0.500000
v 0.620238 1.813705 0.500000
v 0.620238 1.813705 0.379762
v 0.379762 1.813705 0.379762
v 0.379762 1.813705 0.620238
v 0.620238 1.813705 0.620238
v 0.259524 0.957361 0.620238
v 0.259524 0.957361 0.740476
v 0.379762 0.957361 0.259524
v 0.259524 0.957361 0.259524
v 0.740476 0.957361 0.379762
v 0.740476 0.957361 0.259524
v 0.620238 0.957361 0.740476
v 0.740476 0.957361 0.740476
v 0.259524 0.957361 0.379762
v 0.620238 0.957361 0.259524
v 0.740476 0.957361 0.620238
v 0.379762 0.957361 0.740476
v 0.620238 0.957361 0.379762
v 0.379762 0.957361 0.379762
v 0.379762 0.957361 0.620238
v 0.620238 0.957361 0.620238
vt 0.6000 1.0000
vt 0.8000 0.0000
vt 0.7000 0.0000
vt 0.4000 1.0000
vt 0.6000 0.0000
vt 0.5000 0.0000
vt 0.6000 1.0000
vt 0.4000 0.0000
vt 0.5000 0.0000
vt 0.4000 1.0000
vt 0.2000 0.0000
vt 0.3000 0.0000
vt 0.6667 1.0000
vt 1.0000 0.0000
vt 1.0000 1.0000
vt 0.0001 0.9999
vt 0.9999 0.0001
vt 0.9999 0.9999
vt 0.5000 0.7500
vt 0.2500 0.9999
vt 0.2500 0.7500
vt 0.5000 0.2501
vt 0.2500 0.5000
vt 0.2500 0.2501
vt 0.9999 0.2500
vt 0.7499 0.5000
vt 0.7499 0.2501
vt 0.5000 0.5000
vt 0.7499 0.0001
vt 0.5000 0.0001
vt 1.0000 1.0000
vt 0.8000 0.0000
vt 0.8000 1.0000
vt 0.0001 0.5000
vt 0.0001 0.2501
vt 0.0000 1.0000
vt 0.3333 0.0000
vt 0.3333 1.0000
vt 0.2500 0.0001
vt 0.6000 1.0000
vt 0.4000 0.0000
vt 0.4000 1.0000
vt 0.0001 0.7500
vt 0.7499 0.7500
vt 0.5000 0.9999
vt 0.9999 0.5000
vt 0.5000 1.0000
vt 1.0000 0.0000
vt 1.0000 1.0000
vt 1.0000 1.0000
vt 0.8000 0.0000
vt 0.8000 1.0000
vt 0.0000 1.0000
vt 0.5000 0.0000
vt 1.0000 1.0000
vt 0.5000 0.0000
vt 0.5000 1.0000
vt 0.4000 1.0000
vt 0.2000 0.0000
vt 0.2000 1.0000
vt 0.2000 1.0000
vt 0.4000 0.0000
vt 0.4000 1.0000
vt 0.3333 1.0000
vt 0.0000 0.0000
vt 0.0000 1.0000
vt 0.0000 1.0000
vt 0.2000 0.0000
vt 0.2000 1.0000
vt 1.0000 1.0000
vt 0.6667 0.0000
vt 0.6667 1.0000
vt 0.0000 1.0000
vt 0.2000 0.0000
vt 0.2000 1.0000
vt 0.5000 1.0000
vt 0.0000 0.0000
vt 0.0000 1.0000
vt 0.4000 1.0000
vt 0.6000 0.0000
vt 0.6000 1.0000
vt 0.6000 0.0000
vt 1.0000 1.0000
vt 0.9000 0.0000
vt 1.0000 0.0000
vt 0.4000 0.0000
vt 0.8000 1.0000
vt 0.7000 0.0000
vt 0.8000 0.0000
vt 0.6000 0.0000
vt 0.2000 1.0000
vt 0.3000 0.0000
vt 0.2000 0.0000
vt 0.4000 0.0000
vt 0.0000 1.0000
vt 0.1000 0.0000
vt 0.0000 0.0000
vt 0.6667 0.0000
vt 0.0001 0.0001
vt 1.0000 0.0000
vt 0.0000 0.0000
vt 0.6000 0.0000
vt 0.7499 0.9999
vt 0.9999 0.7500
vt 1.0000 0.0000
vt 0.0000 0.0000
vt 1.0000 0.0000
vt 0.4000 0.0000
vt 0.2000 0.0000
vt 0.3333 0.0000
vt 0.0000 0.0000
vt 1.0000 0.0000
vt 0.0000 0.0000
vt 0.5000 0.0000
vt 0.4000 0.0000
vt 0.2500 0.0000
vt 0.0000 0.2500
vt 0.0000 0.0000
vt 0.2500 0.7500
vt 0.0000 0.5000
vt 0.0000 0.7500
vt 0.5000 0.7500
vt 0.2500 0.5000
vt 0.2500 0.7500
vt 0.5000 0.0000
vt 0.2500 0.2500
vt 0.2500 0.0000
vt 0.2500 0.2500
vt 0.2500 0.5000
vt 0.5000 0.5000
vt 0.5000 0.2500
vn -1.0000 0.0000 0.0000
vn 0.0000 0.0000 -1.0000
vn 1.0000 -0.0000 0.0000
vn 0.0000 0.0000 1.0000
vn 0.0000 1.0000 0.0000
vn 0.0000 -1.0000 0.0000
usemtl Material.001
s off
f 2/1/1 9/2/1 14/3/1
f 4/4/2 10/5/2 15/6/2
f 8/7/3 11/8/3 16/9/3
f 6/10/4 12/11/4 17/12/4
f 16/13/3 35/14/3 7/15/3
f 4/16/5 6/17/5 8/18/5
f 22/19/6 21/20/6 28/21/6
f 23/22/6 24/23/6 27/24/6
f 16/25/6 25/26/6 26/27/6
f 26/27/6 13/28/6 23/22/6
f 19/29/6 23/22/6 10/30/6
f 29/31/1 36/32/1 17/33/1
f 27/24/6 9/34/6 18/35/6
f 26/36/4 34/37/4 16/38/4
f 10/30/6 27/24/6 15/39/6
f 28/40/2 30/41/2 14/42/2
f 24/23/6 14/43/6 9/34/6
f 13/28/6 28/21/6 24/23/6
f 29/44/6 12/45/6 22/19/6
f 25/26/6 22/19/6 13/28/6
f 11/46/6 29/44/6 25/26/6
f 27/47/3 32/48/3 15/49/3
f 14/50/1 31/51/1 1/52/1
f 18/53/4 43/54/4 27/47/4
f 3/55/1 38/56/1 18/57/1
f 20/58/2 45/59/2 29/60/2
f 17/61/4 37/62/4 5/63/4
f 7/64/2 39/65/2 19/66/2
f 21/67/3 44/68/3 28/69/3
f 19/70/1 42/71/1 26/72/1
f 5/73/3 40/74/3 20/75/3
f 15/76/2 33/77/2 3/78/2
f 1/79/4 41/80/4 21/81/4
f 14/3/1 1/82/1 2/1/1
f 2/1/1 4/83/1 9/2/1
f 18/84/1 9/2/1 4/83/1
f 4/83/1 3/85/1 18/84/1
f 15/6/2 3/86/2 4/4/2
f 4/4/2 8/87/2 10/5/2
f 19/88/2 10/5/2 8/87/2
f 8/87/2 7/89/2 19/88/2
f 16/9/3 7/90/3 8/7/3
f 8/7/3 6/91/3 11/8/3
f 20/92/3 11/8/3 6/91/3
f 6/91/3 5/93/3 20/92/3
f 17/12/4 5/94/4 6/10/4
f 6/10/4 2/95/4 12/11/4
f 21/96/4 12/11/4 2/95/4
f 2/95/4 1/97/4 21/96/4
f 16/13/3 34/98/3 35/14/3
f 4/16/5 2/99/5 6/17/5
f 22/19/6 12/45/6 21/20/6
f 23/22/6 13/28/6 24/23/6
f 16/25/6 11/46/6 25/26/6
f 26/27/6 25/26/6 13/28/6
f 19/29/6 26/27/6 23/22/6
f 29/31/1 45/100/1 36/32/1
f 27/24/6 24/23/6 9/34/6
f 26/36/4 42/101/4 34/37/4
f 10/30/6 23/22/6 27/24/6
f 28/40/2 44/102/2 30/41/2
f 24/23/6 28/21/6 14/43/6
f 13/28/6 22/19/6 28/21/6
f 29/44/6 17/103/6 12/45/6
f 25/26/6 29/44/6 22/19/6
f 11/46/6 20/104/6 29/44/6
f 27/47/3 43/54/3 32/48/3
f 14/50/1 30/105/1 31/51/1
f 18/53/4 38/106/4 43/54/4
f 3/55/1 33/107/1 38/56/1
f 20/58/2 40/108/2 45/59/2
f 17/61/4 36/109/4 37/62/4
f 7/64/2 35/110/2 39/65/2
f 21/67/3 41/111/3 44/68/3
f 19/70/1 39/112/1 42/71/1
f 5/73/3 37/113/3 40/74/3
f 15/76/2 32/114/2 33/77/2
f 1/79/4 31/115/4 41/80/4
usemtl Material.001_timemachine.png
f 40/116/6 36/117/6 45/118/6
f 35/119/6 42/120/6 39/121/6
f 32/122/6 38/123/6 33/124/6
f 44/125/6 31/126/6 30/127/6
f 40/116/6 37/128/6 36/117/6
f 35/119/6 34/129/6 42/120/6
f 32/122/6 43/130/6 38/123/6
f 44/125/6 41/131/6 31/126/6
